<?xml version="1.0" encoding="UTF-8" standalone="no"?><!DOCTYPE svg PUBLIC "-//W3C//DTD SVG 1.1//EN" "http://www.w3.org/Graphics/SVG/1.1/DTD/svg11.dtd"><svg width="100%" height="100%" viewBox="0 0 36 36" version="1.1" xmlns="http://www.w3.org/2000/svg" xmlns:xlink="http://www.w3.org/1999/xlink" xml:space="preserve" xmlns:serif="http://www.serif.com/" style="fill-rule:evenodd;clip-rule:evenodd;stroke-linejoin:round;stroke-miterlimit:2;"><g><rect x="0" y="0" width="36" height="36" style="fill:none;fill-rule:nonzero;"/><path d="M27.046,24.926l6.425,6.422l-2.122,2.123l-6.423,-6.425c-2.39,1.916 -5.364,2.958 -8.426,2.954c-7.452,-0 -13.5,-6.048 -13.5,-13.5c0,-7.452 6.048,-13.5 13.5,-13.5c7.452,-0 13.5,6.048 13.5,13.5c0.004,3.062 -1.038,6.036 -2.953,8.425Zm-3.009,-1.113c1.902,-1.956 2.966,-4.582 2.962,-7.312c0,-5.802 -4.699,-10.5 -10.5,-10.5c-5.802,-0 -10.5,4.698 -10.5,10.5c0,5.8 4.698,10.5 10.5,10.5c2.73,0.004 5.356,-1.06 7.313,-2.963l0.225,-0.225Z" style="fill:#7d7d7d;fill-rule:nonzero;"/></g></svg>