<?xml version="1.0" encoding="UTF-8" standalone="no"?>
<!DOCTYPE svg PUBLIC "-//W3C//DTD SVG 1.1//EN" "http://www.w3.org/Graphics/SVG/1.1/DTD/svg11.dtd">
<svg width="100%" height="100%" viewBox="0 0 17 16" version="1.1" xmlns="http://www.w3.org/2000/svg" xmlns:xlink="http://www.w3.org/1999/xlink" xml:space="preserve" xmlns:serif="http://www.serif.com/" style="fill-rule:evenodd;clip-rule:evenodd;stroke-linejoin:round;stroke-miterlimit:2;">
    <g transform="matrix(1,0,0,1,-1865,-759)">
        <g transform="matrix(1,0,0,0.845556,1744,51)">
            <g transform="matrix(0.666667,0,0,4.95576,-351.137,-3145.35)">
                <g transform="matrix(1,0,0,0.159095,709.476,803.644)">
                    <rect x="0" y="0" width="24" height="24" style="fill:none;fill-rule:nonzero;"/>
                </g>
                <g transform="matrix(1,0,0,0.159095,709.476,803.644)">
                    <path d="M12,9C10.354,9 9,10.354 9,12C9,13.646 10.354,15 12,15C13.646,15 15,13.646 15,12C15,10.354 13.646,9 12,9ZM12,7C14.743,7 17,9.257 17,12C17,14.743 14.743,17 12,17C9.257,17 7,14.743 7,12C7,9.257 9.257,7 12,7ZM18.5,6.75C18.5,7.436 17.936,8 17.25,8C16.564,8 16,7.436 16,6.75C16,6.064 16.564,5.5 17.25,5.5C17.936,5.5 18.5,6.064 18.5,6.75ZM12,4C9.526,4 9.122,4.007 7.971,4.058C7.187,4.095 6.661,4.2 6.173,4.39C5.739,4.558 5.426,4.759 5.093,5.093C4.78,5.395 4.539,5.765 4.389,6.173C4.199,6.663 4.094,7.188 4.058,7.971C4.006,9.075 4,9.461 4,12C4,14.474 4.007,14.878 4.058,16.029C4.095,16.812 4.2,17.339 4.389,17.826C4.559,18.261 4.759,18.574 5.091,18.906C5.428,19.242 5.741,19.443 6.171,19.609C6.665,19.8 7.191,19.906 7.971,19.942C9.075,19.994 9.461,20 12,20C14.474,20 14.878,19.993 16.029,19.942C16.811,19.905 17.338,19.8 17.826,19.611C18.259,19.442 18.574,19.241 18.906,18.909C19.243,18.572 19.444,18.259 19.61,17.829C19.8,17.336 19.906,16.809 19.942,16.029C19.994,14.925 20,14.539 20,12C20,9.526 19.993,9.122 19.942,7.971C19.905,7.189 19.8,6.661 19.61,6.173C19.459,5.765 19.219,5.396 18.907,5.093C18.605,4.78 18.235,4.539 17.827,4.389C17.337,4.199 16.811,4.094 16.029,4.058C14.925,4.006 14.539,4 12,4ZM12,2C14.717,2 15.056,2.01 16.122,2.06C17.187,2.11 17.912,2.277 18.55,2.525C19.21,2.779 19.766,3.123 20.322,3.678C20.83,4.178 21.224,4.783 21.475,5.45C21.722,6.087 21.89,6.813 21.94,7.878C21.987,8.944 22,9.283 22,12C22,14.717 21.99,15.056 21.94,16.122C21.89,17.187 21.722,17.912 21.475,18.55C21.225,19.218 20.831,19.823 20.322,20.322C19.822,20.83 19.217,21.224 18.55,21.475C17.913,21.722 17.187,21.89 16.122,21.94C15.056,21.987 14.717,22 12,22C9.283,22 8.944,21.99 7.878,21.94C6.813,21.89 6.088,21.722 5.45,21.475C4.782,21.224 4.178,20.831 3.678,20.322C3.169,19.822 2.776,19.217 2.525,18.55C2.277,17.913 2.11,17.187 2.06,16.122C2.013,15.056 2,14.717 2,12C2,9.283 2.01,8.944 2.06,7.878C2.11,6.812 2.277,6.088 2.525,5.45C2.775,4.782 3.169,4.177 3.678,3.678C4.178,3.169 4.782,2.776 5.45,2.525C6.088,2.277 6.812,2.11 7.878,2.06C8.944,2.013 9.283,2 12,2Z" style="fill:rgb(25,225,131);fill-rule:nonzero;"/>
                </g>
            </g>
        </g>
    </g>
</svg>
