<?xml version="1.0" encoding="UTF-8" standalone="no"?>
<!DOCTYPE svg PUBLIC "-//W3C//DTD SVG 1.1//EN" "http://www.w3.org/Graphics/SVG/1.1/DTD/svg11.dtd">
<svg width="100%" height="100%" viewBox="0 0 16 17" version="1.1" xmlns="http://www.w3.org/2000/svg" xmlns:xlink="http://www.w3.org/1999/xlink" xml:space="preserve" xmlns:serif="http://www.serif.com/" style="fill-rule:evenodd;clip-rule:evenodd;stroke-linejoin:round;stroke-miterlimit:2;">
    <g transform="matrix(1,0,0,1,-165,-6279)">
        <g transform="matrix(1,0,0,5.83111,0,1181)">
            <g transform="matrix(0.666667,0,0,0.718623,-307.984,296.825)">
                <g transform="matrix(1,0,0,0.159095,709.476,803.644)">
                    <rect x="0" y="0" width="24" height="24" style="fill:none;"/>
                </g>
                <g transform="matrix(1,0,0,0.159095,709.476,803.644)">
                    <path d="M14,13.5L16.5,13.5L17.5,9.5L14,9.5L14,7.5C14,6.47 14,5.5 16,5.5L17.5,5.5L17.5,2.14C17.174,2.097 15.943,2 14.643,2C11.928,2 10,3.657 10,6.7L10,9.5L7,9.5L7,13.5L10,13.5L10,22L14,22L14,13.5Z" style="fill:rgb(26,29,34);"/>
                </g>
            </g>
        </g>
    </g>
</svg>
