<?xml version="1.0" encoding="UTF-8" standalone="no"?>
<!DOCTYPE svg PUBLIC "-//W3C//DTD SVG 1.1//EN" "http://www.w3.org/Graphics/SVG/1.1/DTD/svg11.dtd">
<svg width="100%" height="100%" viewBox="0 0 16 17" version="1.1" xmlns="http://www.w3.org/2000/svg" xmlns:xlink="http://www.w3.org/1999/xlink" xml:space="preserve" xmlns:serif="http://www.serif.com/" style="fill-rule:evenodd;clip-rule:evenodd;stroke-linejoin:round;stroke-miterlimit:2;">
    <g transform="matrix(1,0,0,1,-274,-6279)">
        <g transform="matrix(1,0,0,5.83111,0,1181)">
            <g transform="matrix(0.666667,0,0,0.718623,-198.984,296.825)">
                <g transform="matrix(1,0,0,0.159095,709.476,803.644)">
                    <rect x="0" y="0" width="24" height="24" style="fill:none;"/>
                </g>
                <g transform="matrix(1,0,0,0.159095,709.476,803.644)">
                    <path d="M21.543,6.498C22,8.28 22,12 22,12C22,12 22,15.72 21.543,17.502C21.289,18.487 20.546,19.262 19.605,19.524C17.896,20 12,20 12,20C12,20 6.107,20 4.395,19.524C3.45,19.258 2.708,18.484 2.457,17.502C2,15.72 2,12 2,12C2,12 2,8.28 2.457,6.498C2.711,5.513 3.454,4.738 4.395,4.476C6.107,4 12,4 12,4C12,4 17.896,4 19.605,4.476C20.55,4.742 21.292,5.516 21.543,6.498ZM10,15.5L16,12L10,8.5L10,15.5Z" style="fill:rgb(26,29,34);"/>
                </g>
            </g>
        </g>
    </g>
</svg>
